<?xml version="1.0" standalone="no"?>
<!DOCTYPE svg PUBLIC "-//W3C//DTD SVG 20010904//EN"
 "http://www.w3.org/TR/2001/REC-SVG-20010904/DTD/svg10.dtd">
<svg version="1.0" xmlns="http://www.w3.org/2000/svg"
 width="1277.000000pt" height="1030.000000pt" viewBox="0 0 1277.000000 1030.000000"
 preserveAspectRatio="xMidYMid meet">
<metadata>
Created by potrace 1.16, written by Peter Selinger 2001-2019
</metadata>
<g transform="translate(0.000000,1030.000000) scale(0.100000,-0.100000)" stroke="none">
<path d="M4476 10104 c-94 -18 -158 -40 -246 -84 -242 -121 -405 -320 -492
-601 l-23 -74 -3 -3058 -2 -3057 20 -61 c41 -120 113 -201 227 -256 167 -80
374 -43 501 90 57 62 86 113 107 194 13 50 15 424 15 3031 l0 2973 25 24 24
25 1528 0 c1649 0 1581 -2 1685 51 58 29 140 110 171 167 138 254 8 565 -268
638 -75 20 -3168 19 -3269 -2z"/>
<path d="M9015 8976 c-254 -40 -497 -190 -632 -391 -60 -90 -3001 -5189 -3029
-5251 -54 -123 -69 -206 -68 -384 1 -149 3 -174 27 -253 66 -214 200 -404 365
-516 108 -73 2735 -1583 2802 -1611 133 -55 191 -65 370 -64 150 0 173 3 253
27 104 32 209 83 292 142 75 53 190 172 238 245 81 125 2992 5180 3019 5243
53 124 70 232 65 397 -6 169 -24 245 -92 385 -71 148 -190 286 -319 370 -58
38 -2661 1542 -2727 1576 -73 37 -179 69 -279 84 -112 17 -176 18 -285 1z
m1233 -1482 c587 -339 1180 -682 1317 -761 138 -80 257 -151 265 -159 7 -7 14
-28 14 -46 -1 -44 -2940 -5137 -2974 -5152 -14 -6 -31 -6 -48 0 -15 6 -482
273 -1037 594 -556 321 -1146 662 -1313 758 -310 179 -332 195 -317 242 11 34
2947 5115 2963 5128 9 6 26 12 39 12 13 0 504 -277 1091 -616z"/>
<path d="M2490 8250 c-25 -6 -62 -17 -83 -25 -67 -27 -1899 -1124 -1977 -1184
-131 -101 -251 -272 -305 -436 -29 -88 -45 -194 -45 -304 0 -162 28 -285 93
-416 51 -102 2945 -5115 3003 -5202 124 -184 318 -320 541 -380 83 -22 119
-26 238 -27 165 0 269 21 399 82 72 34 731 453 893 568 115 82 178 210 176
359 -2 173 -92 313 -252 389 -62 29 -73 31 -181 31 -103 0 -121 -3 -170 -26
-30 -14 -224 -135 -430 -268 -206 -134 -387 -249 -402 -257 -33 -17 -70 -6
-92 28 -83 129 -2946 5107 -2946 5123 0 12 8 30 18 41 10 10 434 267 941 569
713 425 934 561 972 600 190 190 159 516 -62 664 -96 64 -226 92 -329 71z"/>
</g>
</svg>
