<?xml version="1.0" encoding="UTF-8" standalone="no"?>
<svg
        xmlns="http://www.w3.org/2000/svg"
        id="svg2"
        xml:space="preserve"
        style="enable-background:new 0 0 80 80;"
        viewBox="0 0 57 40"
        y="0px"
        x="0px"
        version="1.1">
    <defs
            id="defs20"/>
    <g
            transform="translate(-11.685239,-19.77502)"
            id="g4"><g
       id="g6"><polygon
         id="polygon8"
         points="21.37,52 23.2,60 56.8,60 58.63,52 56.57,52 23.43,52 " /></g>
        <g
                id="g10"><path
         id="path12"
         d="m 64,20 c -2.21,0 -4,1.79 -4,4 0,0.73 0.19,1.4199 0.56,2.03 L 48.29,38.3 42.79,26.8598 C 43.54,26.1401 44,25.1201 44,24 c 0,-2.21 -1.79,-4 -4,-4 -2.21,0 -4,1.79 -4,4 0,1.1099 0.44,2.1299 1.21,2.8599 L 31.71,38.3 19.44,26.03 C 19.81,25.4199 20,24.73 20,24 c 0,-2.21 -1.79,-4 -4,-4 -2.21,0 -4,1.79 -4,4 0,2.1699 1.73,3.9399 3.89,3.99 l 5.03,22.01 2.05,0 34.06,0 2.05,0 5.03,-22.01 C 66.27,27.9399 68,26.1699 68,24 68,21.79 66.21,20 64,20 Z" /></g></g></svg>
